<svg width="1536" height="1024" viewBox="0 0 1536 1024" fill="none" xmlns="http://www.w3.org/2000/svg">
  <defs>
    <linearGradient id="bg" x1="0" y1="0" x2="1536" y2="1024" gradientUnits="userSpaceOnUse">
      <stop stop-color="#F7F8FB"/>
      <stop offset="1" stop-color="#EDF2FA"/>
    </linearGradient>
    <linearGradient id="cardA" x1="110" y1="180" x2="690" y2="650" gradientUnits="userSpaceOnUse">
      <stop stop-color="#FFFFFF" stop-opacity="0.92"/>
      <stop offset="1" stop-color="#EAF1FF" stop-opacity="0.72"/>
    </linearGradient>
    <linearGradient id="cardB" x1="820" y1="180" x2="1410" y2="560" gradientUnits="userSpaceOnUse">
      <stop stop-color="#FFFFFF" stop-opacity="0.88"/>
      <stop offset="1" stop-color="#F0F4FE" stop-opacity="0.68"/>
    </linearGradient>
    <linearGradient id="accentLine" x1="0" y1="0" x2="1" y2="1">
      <stop stop-color="#0A84FF"/>
      <stop offset="1" stop-color="#5DAEFF"/>
    </linearGradient>
    <filter id="shadow" x="60" y="90" width="1416" height="860" color-interpolation-filters="sRGB">
      <feDropShadow dx="0" dy="16" stdDeviation="20" flood-color="#B8C5DB" flood-opacity="0.34"/>
    </filter>
  </defs>

  <rect width="1536" height="1024" fill="url(#bg)"/>

  <g filter="url(#shadow)">
    <rect x="96" y="120" width="620" height="420" rx="36" fill="url(#cardA)" stroke="#FFFFFF"/>
    <rect x="748" y="120" width="692" height="220" rx="36" fill="url(#cardB)" stroke="#FFFFFF"/>
    <rect x="748" y="372" width="334" height="388" rx="36" fill="#FFFFFF" fill-opacity="0.88" stroke="#FFFFFF"/>
    <rect x="1106" y="372" width="334" height="182" rx="36" fill="#FFFFFF" fill-opacity="0.88" stroke="#FFFFFF"/>
    <rect x="1106" y="578" width="334" height="182" rx="36" fill="#FFFFFF" fill-opacity="0.88" stroke="#FFFFFF"/>
    <rect x="96" y="572" width="620" height="188" rx="36" fill="#FFFFFF" fill-opacity="0.88" stroke="#FFFFFF"/>
  </g>

  <g opacity="0.88">
    <rect x="140" y="170" width="190" height="20" rx="10" fill="#D5DDEE"/>
    <rect x="140" y="206" width="280" height="16" rx="8" fill="#E2E8F4"/>
    <path d="M140 430C205 390 266 410 336 348C407 285 467 322 548 266C601 230 650 248 682 232" stroke="url(#accentLine)" stroke-width="10" stroke-linecap="round"/>
    <circle cx="316" cy="364" r="11" fill="#0A84FF" fill-opacity="0.28"/>
    <circle cx="548" cy="266" r="11" fill="#0A84FF" fill-opacity="0.22"/>

    <rect x="784" y="164" width="180" height="18" rx="9" fill="#D8DFEE"/>
    <rect x="784" y="198" width="510" height="14" rx="7" fill="#E2E8F4"/>
    <rect x="784" y="224" width="460" height="14" rx="7" fill="#E2E8F4"/>
    <rect x="784" y="266" width="160" height="42" rx="21" fill="#0A84FF" fill-opacity="0.9"/>

    <rect x="788" y="418" width="116" height="14" rx="7" fill="#D8DFEE"/>
    <rect x="788" y="448" width="250" height="12" rx="6" fill="#E2E8F4"/>
    <rect x="788" y="480" width="250" height="12" rx="6" fill="#E2E8F4"/>
    <rect x="788" y="534" width="118" height="38" rx="19" fill="#34C759" fill-opacity="0.75"/>

    <rect x="1146" y="418" width="132" height="14" rx="7" fill="#D8DFEE"/>
    <rect x="1146" y="446" width="246" height="12" rx="6" fill="#E2E8F4"/>
    <rect x="1146" y="620" width="132" height="14" rx="7" fill="#D8DFEE"/>
    <rect x="1146" y="648" width="246" height="12" rx="6" fill="#E2E8F4"/>

    <rect x="140" y="628" width="190" height="16" rx="8" fill="#D8DFEE"/>
    <rect x="140" y="658" width="540" height="12" rx="6" fill="#E2E8F4"/>
    <rect x="140" y="688" width="480" height="12" rx="6" fill="#E2E8F4"/>
  </g>
</svg>
